<svg width="730" height="109" viewBox="0 0 730 109" fill="none" xmlns="http://www.w3.org/2000/svg">
<path fill-rule="evenodd" clip-rule="evenodd" d="M70.3212 17.2014H51.4386V27.8798C47.6621 21.2384 39.7184 15.6387 29.6912 15.6387C21.3568 15.6387 13.934 18.7641 8.59481 24.6242C3.25561 30.4843 0 39.2093 0 50.5389V51.5807C0 62.9102 3.25561 71.6352 8.46458 77.4953C13.8038 83.6159 21.2266 86.7413 29.6912 86.7413C40.2393 86.7413 47.9226 81.5323 51.4386 74.8908V85.2996H70.3212V17.2014ZM34.3792 72.0259C23.9613 72.0259 18.2314 65.124 18.2314 51.7109V50.6691C18.2314 36.7351 25.0031 30.0936 34.5095 30.0936C44.4065 30.0936 51.1782 36.9955 51.1782 50.6691V51.7109C51.1782 65.3845 44.7972 72.0259 34.3792 72.0259ZM88.6266 17.2014H107.509V28.0101C111.025 21.2384 118.188 15.6387 129.647 15.6387C136.419 15.6387 142.019 17.7223 146.186 21.8895C150.223 26.1869 152.567 32.9586 152.567 41.9441V85.3088H133.684V44.6788C133.684 35.3026 130.038 31.0052 121.704 31.0052C113.499 31.0052 107.509 35.9537 107.509 45.981V85.3088H88.6266V17.2014ZM186.058 78.4069L158.971 17.2014H179.286L195.825 58.0919L211.061 17.2014H229.162L192.309 108.489H174.078L186.058 78.4069ZM260.937 86.611C246.483 86.611 238.93 79.3185 238.93 65.124V0H257.682V17.2014H274.528V30.6145H257.682V63.4311C257.682 68.7703 260.156 71.505 265.235 71.505C270.164 71.505 272.495 70.3186 274.528 69.2039V83.6395C270.963 85.3438 267.277 86.611 260.937 86.611ZM309.977 78.4069L282.89 17.2014H303.205L319.744 58.0919L334.98 17.2014H353.081L316.228 108.489H297.996L309.977 78.4069ZM361.569 17.2014H380.452V27.8798C384.228 21.2384 392.172 15.6387 402.199 15.6387C410.533 15.6387 417.956 18.7641 423.295 24.6242C428.635 30.4843 431.89 39.2093 431.89 50.5389V51.5807C431.89 62.9102 428.635 71.6352 423.426 77.4953C418.086 83.6159 410.664 86.7413 402.199 86.7413C391.651 86.7413 383.968 81.5323 380.452 74.8908V108.489H361.569V17.2014ZM396.355 72.0259C406.773 72.0259 412.503 65.124 412.503 51.7109V50.6691C412.503 36.7351 405.731 30.0936 396.225 30.0936C386.328 30.0936 379.556 36.9955 379.556 50.6691V51.7109C379.556 65.3845 385.937 72.0259 396.355 72.0259ZM475.597 86.7247C465.31 86.7247 456.455 83.5995 450.205 77.4793C443.824 71.6195 440.048 63.0252 440.048 52.087V51.0452C440.048 40.2372 443.824 31.5127 450.205 25.2623C456.455 19.1421 465.18 15.6262 475.076 15.6262C483.931 15.6262 492.135 18.2305 498.255 23.8299C504.375 29.4292 508.281 38.1537 508.281 50.2639V55.4726H459.19C459.71 66.9317 465.7 73.3123 476.118 73.3123C484.973 73.3123 489.14 69.5361 490.311 63.8065H508.151C505.938 78.521 494.348 86.7247 475.597 86.7247ZM489.921 43.8833C489.27 33.4659 484.061 28.6479 475.076 28.6479C466.612 28.6479 460.882 34.117 459.45 43.8833H489.921Z" fill="black"/>
<g filter="url(#filter0_i_1227_181)">
<path d="M568.614 84.9091C577.023 84.9091 579.864 79.6818 581.341 77.2955H582.136V84H588.614V25.8182H581.909V47.2955H581.341C579.864 45.0227 577.25 39.7955 568.727 39.7955C557.705 39.7955 550.091 48.5455 550.091 62.2955C550.091 76.1591 557.705 84.9091 568.614 84.9091ZM569.523 78.8864C561.114 78.8864 556.795 71.5 556.795 62.1818C556.795 52.9773 561 45.8182 569.523 45.8182C577.705 45.8182 582.023 52.4091 582.023 62.1818C582.023 72.0682 577.591 78.8864 569.523 78.8864ZM619.551 84.9091C631.369 84.9091 639.324 75.9318 639.324 62.4091C639.324 48.7727 631.369 39.7955 619.551 39.7955C607.733 39.7955 599.778 48.7727 599.778 62.4091C599.778 75.9318 607.733 84.9091 619.551 84.9091ZM619.551 78.8864C610.574 78.8864 606.483 71.1591 606.483 62.4091C606.483 53.6591 610.574 45.8182 619.551 45.8182C628.528 45.8182 632.619 53.6591 632.619 62.4091C632.619 71.1591 628.528 78.8864 619.551 78.8864ZM667.286 84.9091C676.945 84.9091 683.308 79 684.445 71.2727H677.74C676.49 76.0455 672.513 78.8864 667.286 78.8864C659.331 78.8864 654.217 72.2955 654.217 62.1818C654.217 52.2955 659.445 45.8182 667.286 45.8182C673.195 45.8182 676.717 49.4545 677.74 53.4318H684.445C683.308 45.25 676.376 39.7955 667.172 39.7955C655.354 39.7955 647.513 49.1136 647.513 62.4091C647.513 75.4773 655.013 84.9091 667.286 84.9091ZM725.155 50.1364C723.053 43.9432 718.337 39.7955 709.7 39.7955C700.496 39.7955 693.678 45.0227 693.678 52.4091C693.678 58.4318 697.257 62.4659 705.268 64.3409L712.541 66.0455C716.945 67.0682 719.018 69.1705 719.018 72.1818C719.018 75.9318 715.041 79 708.791 79C703.308 79 699.871 76.642 698.678 71.9545L692.314 73.5455C693.876 80.9602 699.984 84.9091 708.905 84.9091C719.047 84.9091 725.95 79.3693 725.95 71.8409C725.95 65.7614 722.143 61.9261 714.359 60.0227L707.882 58.4318C702.712 57.1534 700.382 55.4205 700.382 52.0682C700.382 48.3182 704.359 45.5909 709.7 45.5909C715.553 45.5909 717.967 48.8295 719.132 51.8409L725.155 50.1364Z" fill="black"/>
</g>
<path d="M581.341 77.2955V76.2955H580.784L580.491 76.7691L581.341 77.2955ZM582.136 77.2955H583.136V76.2955H582.136V77.2955ZM582.136 84H581.136V85H582.136V84ZM588.614 84V85H589.614V84H588.614ZM588.614 25.8182H589.614V24.8182H588.614V25.8182ZM581.909 25.8182V24.8182H580.909V25.8182H581.909ZM581.909 47.2955V48.2955H582.909V47.2955H581.909ZM581.341 47.2955L580.502 47.8404L580.798 48.2955H581.341V47.2955ZM568.614 85.9091C573.049 85.9091 576.087 84.5222 578.213 82.7686C580.309 81.0399 581.471 78.9852 582.191 77.8218L580.491 76.7691C579.734 77.9921 578.737 79.7442 576.94 81.2257C575.174 82.6823 572.587 83.9091 568.614 83.9091V85.9091ZM581.341 78.2955H582.136V76.2955H581.341V78.2955ZM581.136 77.2955V84H583.136V77.2955H581.136ZM582.136 85H588.614V83H582.136V85ZM589.614 84V25.8182H587.614V84H589.614ZM588.614 24.8182H581.909V26.8182H588.614V24.8182ZM580.909 25.8182V47.2955H582.909V25.8182H580.909ZM581.909 46.2955H581.341V48.2955H581.909V46.2955ZM582.179 46.7505C581.483 45.6793 580.366 43.638 578.317 41.9259C576.23 40.181 573.217 38.7955 568.727 38.7955V40.7955C572.76 40.7955 575.316 42.0235 577.035 43.4605C578.793 44.9302 579.721 46.6389 580.502 47.8404L582.179 46.7505ZM568.727 38.7955C562.931 38.7955 557.988 41.1055 554.51 45.246C551.044 49.3716 549.091 55.242 549.091 62.2955H551.091C551.091 55.5989 552.944 50.2193 556.041 46.5324C559.126 42.8604 563.501 40.7955 568.727 40.7955V38.7955ZM549.091 62.2955C549.091 69.4039 551.043 75.3016 554.493 79.4413C557.956 83.5963 562.871 85.9091 568.614 85.9091V83.9091C563.447 83.9091 559.101 81.8469 556.03 78.161C552.945 74.4598 551.091 69.0506 551.091 62.2955H549.091ZM569.523 77.8864C565.655 77.8864 562.772 76.2075 560.822 73.4508C558.846 70.6574 557.795 66.7035 557.795 62.1818H555.795C555.795 66.9783 556.904 71.3767 559.189 74.606C561.5 77.8721 564.981 79.8864 569.523 79.8864V77.8864ZM557.795 62.1818C557.795 57.714 558.818 53.8504 560.775 51.1325C562.703 48.4538 565.582 46.8182 569.523 46.8182V44.8182C564.94 44.8182 561.456 46.7621 559.151 49.9641C556.875 53.1269 555.795 57.445 555.795 62.1818H557.795ZM569.523 46.8182C573.309 46.8182 576.128 48.3251 578.034 50.9262C579.969 53.5672 581.023 57.4246 581.023 62.1818H583.023C583.023 57.1663 581.917 52.8419 579.648 49.7442C577.349 46.6068 573.918 44.8182 569.523 44.8182V46.8182ZM581.023 62.1818C581.023 66.9927 579.942 70.9407 577.987 73.6573C576.058 76.3363 573.235 77.8864 569.523 77.8864V79.8864C573.878 79.8864 577.305 78.0274 579.61 74.8257C581.887 71.6616 583.023 67.2573 583.023 62.1818H581.023ZM619.551 85.9091C625.73 85.9091 630.952 83.5544 634.62 79.3911C638.277 75.239 640.324 69.3631 640.324 62.4091H638.324C638.324 68.9779 636.393 74.3519 633.119 78.0691C629.854 81.7752 625.191 83.9091 619.551 83.9091V85.9091ZM640.324 62.4091C640.324 55.4003 638.278 49.496 634.621 45.329C630.953 41.1504 625.73 38.7955 619.551 38.7955V40.7955C625.191 40.7955 629.853 42.9291 633.118 46.6483C636.392 50.379 638.324 55.7816 638.324 62.4091H640.324ZM619.551 38.7955C613.373 38.7955 608.149 41.1504 604.481 45.329C600.824 49.496 598.778 55.4003 598.778 62.4091H600.778C600.778 55.7816 602.71 50.379 605.985 46.6483C609.249 42.9291 613.912 40.7955 619.551 40.7955V38.7955ZM598.778 62.4091C598.778 69.3631 600.825 75.239 604.483 79.3911C608.15 83.5544 613.373 85.9091 619.551 85.9091V83.9091C613.911 83.9091 609.248 81.7752 605.983 78.0691C602.709 74.3519 600.778 68.9779 600.778 62.4091H598.778ZM619.551 77.8864C615.394 77.8864 612.428 76.1178 610.466 73.3506C608.476 70.5434 607.483 66.6468 607.483 62.4091H605.483C605.483 66.9214 606.535 71.2635 608.835 74.5073C611.163 77.7912 614.731 79.8864 619.551 79.8864V77.8864ZM607.483 62.4091C607.483 58.1713 608.476 54.2443 610.469 51.4071C612.433 48.61 615.4 46.8182 619.551 46.8182V44.8182C614.725 44.8182 611.158 46.9468 608.832 50.2576C606.535 53.5285 605.483 57.8969 605.483 62.4091H607.483ZM619.551 46.8182C623.702 46.8182 626.669 48.61 628.633 51.4071C630.626 54.2443 631.619 58.1713 631.619 62.4091H633.619C633.619 57.8969 632.567 53.5285 630.27 50.2576C627.945 46.9468 624.377 44.8182 619.551 44.8182V46.8182ZM631.619 62.4091C631.619 66.6468 630.626 70.5434 628.636 73.3506C626.674 76.1178 623.708 77.8864 619.551 77.8864V79.8864C624.371 79.8864 627.939 77.7912 630.268 74.5073C632.567 71.2635 633.619 66.9214 633.619 62.4091H631.619ZM684.445 71.2727L685.434 71.4182L685.602 70.2727H684.445V71.2727ZM677.74 71.2727V70.2727H676.968L676.773 71.0194L677.74 71.2727ZM677.74 53.4318L676.772 53.6809L676.965 54.4318H677.74V53.4318ZM684.445 53.4318V54.4318H685.593L685.435 53.2942L684.445 53.4318ZM667.286 85.9091C677.407 85.9091 684.221 79.6692 685.434 71.4182L683.455 71.1272C682.396 78.3308 676.483 83.9091 667.286 83.9091V85.9091ZM684.445 70.2727H677.74V72.2727H684.445V70.2727ZM676.773 71.0194C675.651 75.3037 672.11 77.8864 667.286 77.8864V79.8864C672.915 79.8864 677.33 76.7872 678.707 71.5261L676.773 71.0194ZM667.286 77.8864C663.613 77.8864 660.638 76.3782 658.557 73.7114C656.457 71.0207 655.217 67.0811 655.217 62.1818H653.217C653.217 67.3961 654.535 71.8088 656.98 74.942C659.444 78.0991 663.003 79.8864 667.286 79.8864V77.8864ZM655.217 62.1818C655.217 57.406 656.48 53.5538 658.592 50.9178C660.687 48.3015 663.666 46.8182 667.286 46.8182V44.8182C663.064 44.8182 659.509 46.5735 657.031 49.6674C654.568 52.7416 653.217 57.0713 653.217 62.1818H655.217ZM667.286 46.8182C672.708 46.8182 675.855 50.1156 676.772 53.6809L678.709 53.1828C677.58 48.7935 673.681 44.8182 667.286 44.8182V46.8182ZM677.74 54.4318H684.445V52.4318H677.74V54.4318ZM685.435 53.2942C684.219 44.5354 676.787 38.7955 667.172 38.7955V40.7955C675.966 40.7955 682.398 45.9646 683.454 53.5694L685.435 53.2942ZM667.172 38.7955C660.981 38.7955 655.786 41.2451 652.153 45.4639C648.531 49.6699 646.513 55.5693 646.513 62.4091H648.513C648.513 55.9534 650.415 50.5461 653.668 46.769C656.91 43.0049 661.545 40.7955 667.172 40.7955V38.7955ZM646.513 62.4091C646.513 69.128 648.441 74.9998 652.036 79.2091C655.646 83.4348 660.872 85.9091 667.286 85.9091V83.9091C661.426 83.9091 656.766 81.6674 653.557 77.9102C650.334 74.1366 648.513 68.7584 648.513 62.4091H646.513ZM725.155 50.1364L725.427 51.0986L726.44 50.8119L726.102 49.8149L725.155 50.1364ZM705.268 64.3409L705.497 63.3673L705.496 63.3672L705.268 64.3409ZM712.541 66.0455L712.313 67.0191L712.315 67.0195L712.541 66.0455ZM698.678 71.9545L699.647 71.7079L699.401 70.7429L698.435 70.9844L698.678 71.9545ZM692.314 73.5455L692.071 72.5753L691.137 72.809L691.335 73.7517L692.314 73.5455ZM714.359 60.0227L714.121 60.9939L714.122 60.9941L714.359 60.0227ZM707.882 58.4318L707.642 59.4026L707.644 59.403L707.882 58.4318ZM719.132 51.8409L718.199 52.2017L718.528 53.0512L719.404 52.8031L719.132 51.8409ZM726.102 49.8149C724.999 46.565 723.186 43.7887 720.461 41.8313C717.736 39.8736 714.181 38.7955 709.7 38.7955V40.7955C713.856 40.7955 716.977 41.7912 719.294 43.4557C721.612 45.1204 723.209 47.5146 724.208 50.4578L726.102 49.8149ZM709.7 38.7955C700.188 38.7955 692.678 44.2545 692.678 52.4091H694.678C694.678 45.7909 700.804 40.7955 709.7 40.7955V38.7955ZM692.678 52.4091C692.678 55.6353 693.644 58.4096 695.744 60.6192C697.822 62.806 700.925 64.3513 705.041 65.3146L705.496 63.3672C701.601 62.4555 698.908 61.0463 697.194 59.2416C695.501 57.4597 694.678 55.2056 694.678 52.4091H692.678ZM705.04 65.3145L712.313 67.0191L712.769 65.0718L705.497 63.3673L705.04 65.3145ZM712.315 67.0195C714.418 67.508 715.846 68.2292 716.737 69.088C717.6 69.9196 718.018 70.9333 718.018 72.1818H720.018C720.018 70.419 719.4 68.8759 718.125 67.6478C716.879 66.447 715.068 65.6056 712.767 65.0714L712.315 67.0195ZM718.018 72.1818C718.018 73.6686 717.238 75.0898 715.677 76.1764C714.106 77.2697 711.762 78 708.791 78V80C712.07 80 714.84 79.1962 716.82 77.8179C718.81 76.4329 720.018 74.445 720.018 72.1818H718.018ZM708.791 78C706.187 78 704.175 77.4398 702.696 76.4135C701.231 75.3969 700.194 73.8575 699.647 71.7079L697.708 72.2012C698.354 74.7391 699.633 76.7224 701.556 78.0567C703.464 79.3812 705.913 80 708.791 80V78ZM698.435 70.9844L692.071 72.5753L692.556 74.5156L698.92 72.9247L698.435 70.9844ZM691.335 73.7517C692.167 77.6997 694.227 80.7699 697.291 82.8368C700.337 84.8915 704.305 85.9091 708.905 85.9091V83.9091C704.584 83.9091 701.038 82.9523 698.409 81.1788C695.799 79.4176 694.023 76.806 693.292 73.3393L691.335 73.7517ZM708.905 85.9091C719.35 85.9091 726.95 80.1417 726.95 71.8409H724.95C724.95 78.5969 718.744 83.9091 708.905 83.9091V85.9091ZM726.95 71.8409C726.95 68.5705 725.917 65.8297 723.787 63.6645C721.683 61.5263 718.588 60.0273 714.597 59.0513L714.122 60.9941C717.915 61.9215 720.615 63.2919 722.361 65.067C724.081 66.8152 724.95 69.0318 724.95 71.8409H726.95ZM714.598 59.0516L708.121 57.4607L707.644 59.403L714.121 60.9939L714.598 59.0516ZM708.122 57.4611C705.574 56.8311 703.88 56.1212 702.829 55.2558C701.844 54.4446 701.382 53.4631 701.382 52.0682H699.382C699.382 54.0256 700.085 55.5866 701.557 56.7996C702.964 57.9583 705.019 58.7541 707.642 59.4026L708.122 57.4611ZM701.382 52.0682C701.382 50.5862 702.157 49.2495 703.608 48.2455C705.069 47.2335 707.189 46.5909 709.7 46.5909V44.5909C706.871 44.5909 704.331 45.312 702.469 46.6011C700.596 47.8982 699.382 49.8002 699.382 52.0682H701.382ZM709.7 46.5909C712.429 46.5909 714.267 47.3406 715.549 48.3672C716.846 49.4057 717.655 50.7944 718.199 52.2017L720.065 51.4802C719.444 49.876 718.464 48.1397 716.799 46.8061C715.119 45.4606 712.824 44.5909 709.7 44.5909V46.5909ZM719.404 52.8031L725.427 51.0986L724.883 49.1742L718.86 50.8787L719.404 52.8031Z" fill="black"/>
<defs>
<filter id="filter0_i_1227_181" x="550.091" y="25.8184" width="175.859" height="63.0908" filterUnits="userSpaceOnUse" color-interpolation-filters="sRGB">
<feFlood flood-opacity="0" result="BackgroundImageFix"/>
<feBlend mode="normal" in="SourceGraphic" in2="BackgroundImageFix" result="shape"/>
<feColorMatrix in="SourceAlpha" type="matrix" values="0 0 0 0 0 0 0 0 0 0 0 0 0 0 0 0 0 0 127 0" result="hardAlpha"/>
<feOffset dy="4"/>
<feGaussianBlur stdDeviation="2"/>
<feComposite in2="hardAlpha" operator="arithmetic" k2="-1" k3="1"/>
<feColorMatrix type="matrix" values="0 0 0 0 0 0 0 0 0 0 0 0 0 0 0 0 0 0 0.25 0"/>
<feBlend mode="normal" in2="shape" result="effect1_innerShadow_1227_181"/>
</filter>
</defs>
</svg>
